{
    "asset" : {
        "generator" : "Khronos glTF Blender I/O v1.4.40",
        "version" : "2.0"
    },
    "scene" : 0,
    "scenes" : [
        {
            "name" : "Scene",
            "nodes" : [
                0,
                1,
                2
            ]
        }
    ],
    "nodes" : [
        {
            "mesh" : 0,
            "name" : "Cube",
            "rotation" : [
                -0.23708052933216095,
                0,
                0,
                0.9714900255203247
            ],
            "scale" : [
                0.009999999776482582,
                0.025969984009861946,
                0.018562626093626022
            ]
        },
        {
            "name" : "Light",
            "rotation" : [
                0.16907575726509094,
                0.7558803558349609,
                -0.27217137813568115,
                0.570947527885437
            ],
            "translation" : [
                4.076245307922363,
                5.903861999511719,
                -1.0054539442062378
            ]
        },
        {
            "name" : "Camera",
            "rotation" : [
                0.483536034822464,
                0.33687159419059753,
                -0.20870360732078552,
                0.7804827094078064
            ],
            "translation" : [
                7.358891487121582,
                4.958309173583984,
                6.925790786743164
            ]
        }
    ],
    "materials" : [
        {
            "doubleSided" : true,
            "name" : "Material",
            "pbrMetallicRoughness" : {
                "baseColorFactor" : [
                    0.8000000715255737,
                    0.20596009492874146,
                    0,
                    1
                ],
                "metallicFactor" : 0.8723404407501221,
                "roughnessFactor" : 0.13049644231796265
            }
        }
    ],
    "meshes" : [
        {
            "name" : "Cube",
            "primitives" : [
                {
                    "attributes" : {
                        "POSITION" : 0,
                        "NORMAL" : 1,
                        "TEXCOORD_0" : 2
                    },
                    "indices" : 3,
                    "material" : 0
                }
            ]
        }
    ],
    "accessors" : [
        {
            "bufferView" : 0,
            "componentType" : 5126,
            "count" : 88,
            "max" : [
                1,
                1,
                12.643386840820312
            ],
            "min" : [
                -1,
                -1.578185796737671,
                -1
            ],
            "type" : "VEC3"
        },
        {
            "bufferView" : 1,
            "componentType" : 5126,
            "count" : 88,
            "type" : "VEC3"
        },
        {
            "bufferView" : 2,
            "componentType" : 5126,
            "count" : 88,
            "type" : "VEC2"
        },
        {
            "bufferView" : 3,
            "componentType" : 5123,
            "count" : 132,
            "type" : "SCALAR"
        }
    ],
    "bufferViews" : [
        {
            "buffer" : 0,
            "byteLength" : 1056,
            "byteOffset" : 0
        },
        {
            "buffer" : 0,
            "byteLength" : 1056,
            "byteOffset" : 1056
        },
        {
            "buffer" : 0,
            "byteLength" : 704,
            "byteOffset" : 2112
        },
        {
            "buffer" : 0,
            "byteLength" : 264,
            "byteOffset" : 2816
        }
    ],
    "buffers" : [
        {
            "byteLength" : 3080,
            "uri" : "data:application/octet-stream;base64,"
        }
    ]
}
